<?xml version="1.0" standalone="no"?>
<!DOCTYPE svg PUBLIC "-//W3C//DTD SVG 20010904//EN"
 "http://www.w3.org/TR/2001/REC-SVG-20010904/DTD/svg10.dtd">
<svg version="1.0" xmlns="http://www.w3.org/2000/svg"
 width="300.000000pt" height="300.000000pt" viewBox="0 0 300.000000 300.000000"
 preserveAspectRatio="xMidYMid meet">
<metadata>
Created by potrace 1.14, written by Peter Selinger 2001-2017
</metadata>
<g transform="translate(0.000000,300.000000) scale(0.100000,-0.100000)"
fill="#000000" stroke="none">
<path d="M2236 2198 c-38 -90 -75 -176 -82 -193 -7 -16 -99 -232 -203 -480
l-189 -450 400 -5 400 -5 32 -80 31 -80 -507 0 c-280 0 -508 -3 -508 -6 0 -3
-20 -3 -45 1 -24 4 -48 3 -53 -2 -5 -5 -15 -2 -23 8 -11 13 -11 18 -1 21 6 3
12 10 12 17 0 7 11 34 25 61 13 27 22 52 19 57 -3 4 0 8 5 8 6 0 11 4 11 10 0
5 16 44 35 86 19 41 35 77 35 79 0 3 11 28 24 57 13 29 40 88 60 131 20 44 36
81 36 83 0 2 16 38 35 80 19 41 35 77 35 79 0 3 11 28 25 57 47 103 155 353
155 360 0 4 -415 6 -922 3 -870 -4 -924 -5 -936 -22 -17 -24 -112 -210 -112
-220 0 -4 211 -7 470 -7 342 1 468 -2 463 -10 -5 -8 -3 -8 8 0 15 12 233 14
245 2 3 -4 14 -4 23 1 17 8 138 7 147 -1 3 -3 19 -2 37 2 18 4 41 4 52 0 11
-4 28 -3 38 2 11 5 17 5 17 -1 0 -7 9 -7 23 -2 13 4 31 3 43 -3 18 -10 19 -13
7 -24 -7 -7 -11 -17 -8 -23 4 -5 1 -9 -4 -9 -6 0 -11 -5 -11 -11 0 -13 -89
-220 -102 -236 -5 -7 -7 -17 -3 -23 3 -5 2 -10 -2 -10 -5 0 -15 -17 -22 -37
-8 -21 -27 -66 -42 -100 -16 -34 -40 -90 -54 -123 -14 -34 -39 -88 -55 -121
-15 -32 -27 -59 -25 -59 2 0 -10 -30 -27 -67 -43 -95 -51 -117 -50 -125 1 -5
-2 -8 -8 -8 -6 0 -9 -3 -8 -7 1 -9 -10 -37 -42 -108 -11 -25 -25 -56 -30 -69
l-9 -24 135 2 c74 0 134 -3 134 -7 0 -5 4 -6 9 -3 5 4 367 6 805 6 619 1 796
3 796 13 0 8 4 7 11 -3 17 -25 1 25 -47 140 -24 58 -94 231 -157 385 -310 760
-470 1151 -476 1163 -4 7 -35 -55 -75 -150z m202 -810 l21 -58 -154 0 c-85 0
-155 4 -155 8 0 9 83 226 106 279 8 17 14 33 14 36 0 2 7 22 16 43 l16 39 57
-145 c31 -80 67 -171 79 -202z"/>
</g>
</svg>
